grf
version=1
nRows=28
nColumns=19
inDegrees=yes
endheader
time	ground_force_1_vx	ground_force_1_vy	ground_force_1_vz	ground_force_1_px	ground_force_1_py	ground_force_1_pz	ground_moment_1_mx	ground_moment_1_my	ground_moment_1_mz	ground_force_2_vx	ground_force_2_vy	ground_force_2_vz	ground_force_2_px	ground_force_2_py	ground_force_2_pz	ground_moment_2_mx	ground_moment_2_my	ground_moment_2_mz
0.450000	-10.802343	526.814941	13.440886	0.929994	0.000000	0.165962	0.000000	-1.839208	-0.000000	0.000000	0.000000	0.000000	0.000000	0.000000	0.000000	0.000000	0.000000	0.000000
0.451000	-9.980253	534.610107	13.762123	0.929257	0.000000	0.168832	0.000000	-1.692348	-0.000000	0.000000	0.000000	0.000000	0.000000	0.000000	0.000000	0.000000	0.000000	0.000000
0.452000	-10.601833	535.024780	13.119647	0.931443	0.000000	0.168223	0.000000	-1.771702	-0.000000	0.000000	0.000000	0.000000	0.000000	0.000000	0.000000	0.000000	0.000000	0.000000
0.453000	-11.263516	527.063660	12.657867	0.930789	0.000000	0.166682	0.000000	-1.648184	-0.000000	0.000000	0.000000	0.000000	0.000000	0.000000	0.000000	0.000000	0.000000	0.000000
0.454000	-11.323668	527.229553	11.553614	0.931717	0.000000	0.167764	0.000000	-1.735026	-0.000000	0.000000	0.000000	0.000000	0.000000	0.000000	0.000000	0.000000	0.000000	0.000000
0.455000	-12.546779	538.590698	12.557481	0.929987	0.000000	0.168476	0.000000	-1.611696	-0.000000	0.000000	0.000000	0.000000	0.000000	0.000000	0.000000	0.000000	0.000000	0.000000
0.456000	-12.847542	536.766357	12.396862	0.930990	0.000000	0.166983	0.000000	-1.839019	-0.000000	0.000000	0.000000	0.000000	0.000000	0.000000	0.000000	0.000000	0.000000	0.000000
0.457000	-13.007950	540.829773	11.975238	0.930221	0.000000	0.167434	0.000000	-1.781238	-0.000000	0.000000	0.000000	0.000000	0.000000	0.000000	0.000000	0.000000	0.000000	0.000000
0.458000	-13.669633	542.737061	12.015392	0.930639	0.000000	0.167387	0.000000	-1.836515	-0.000000	0.000000	0.000000	0.000000	0.000000	0.000000	0.000000	0.000000	0.000000	0.000000
0.459000	-13.890194	549.205505	12.256321	0.929172	0.000000	0.168371	0.000000	-1.812505	-0.000000	0.000000	0.000000	0.000000	0.000000	0.000000	0.000000	0.000000	0.000000	0.000000
0.460000	-14.511773	550.200684	11.894928	0.929307	0.000000	0.167783	0.000000	-1.823172	-0.000000	0.000000	0.000000	0.000000	0.000000	0.000000	0.000000	0.000000	0.000000	0.000000
0.461000	-15.353913	546.966431	13.019260	0.929499	0.000000	0.167853	0.000000	-1.727035	-0.000000	0.000000	0.000000	0.000000	0.000000	0.000000	0.000000	0.000000	0.000000	0.000000
0.462000	-15.815086	553.600708	12.778332	0.928866	0.000000	0.168002	0.000000	-1.810095	-0.000000	0.000000	0.000000	0.000000	0.000000	0.000000	0.000000	0.000000	0.000000	0.000000
0.463000	-15.634626	554.181213	12.155933	0.928822	0.000000	0.167929	0.000000	-1.891363	-0.000000	0.000000	0.000000	0.000000	0.000000	0.000000	0.000000	0.000000	0.000000	0.000000
0.464000	-16.196054	554.595825	12.798409	0.928424	0.000000	0.167630	0.000000	-1.812470	-0.000000	0.000000	0.000000	0.000000	0.000000	0.000000	0.000000	0.000000	0.000000	0.000000
0.465000	-16.957993	558.659302	13.360575	0.928895	0.000000	0.168501	0.000000	-1.824187	-0.000000	0.000000	0.000000	0.000000	0.000000	0.000000	0.000000	0.000000	0.000000	0.000000
0.466000	-16.857738	558.410522	13.240110	0.927758	0.000000	0.168494	0.000000	-1.758550	-0.000000	0.000000	0.000000	0.000000	0.000000	0.000000	0.000000	0.000000	0.000000	0.000000
0.467000	-18.020693	560.981323	13.802277	0.928036	0.000000	0.167639	0.000000	-1.820063	-0.000000	0.000000	0.000000	0.000000	0.000000	0.000000	0.000000	0.000000	0.000000	0.000000
0.468000	-17.820183	557.415405	13.099570	0.928381	0.000000	0.167569	0.000000	-1.903014	-0.000000	0.000000	0.000000	0.000000	0.000000	0.000000	0.000000	0.000000	0.000000	0.000000
0.469000	-18.682377	561.395996	12.999183	0.928698	0.000000	0.167436	0.000000	-2.009257	-0.000000	0.000000	0.000000	0.000000	0.000000	0.000000	0.000000	0.000000	0.000000	0.000000
0.470000	-18.902937	562.639832	13.420808	0.928056	0.000000	0.167561	0.000000	-1.983298	-0.000000	0.000000	0.000000	0.000000	0.000000	0.000000	0.000000	0.000000	0.000000	0.000000
0.471000	-19.564619	563.717957	14.103437	0.927094	0.000000	0.167874	0.000000	-1.858963	-0.000000	0.000000	0.000000	0.000000	0.000000	0.000000	0.000000	0.000000	0.000000	0.000000
0.472000	-20.226301	571.098572	14.645525	0.926661	0.000000	0.168003	0.000000	-1.898170	-0.000000	0.000000	0.000000	0.000000	0.000000	0.000000	0.000000	0.000000	0.000000	0.000000
0.473000	-20.647371	568.030212	13.541271	0.927149	0.000000	0.167651	0.000000	-1.885496	-0.000000	0.000000	0.000000	0.000000	0.000000	0.000000	0.000000	0.000000	0.000000	0.000000
0.474000	-20.667421	568.942444	14.665604	0.925851	0.000000	0.167954	0.000000	-1.869265	-0.000000	0.000000	0.000000	0.000000	0.000000	0.000000	0.000000	0.000000	0.000000	0.000000
0.475000	-21.669971	571.513245	14.765989	0.927248	0.000000	0.167392	0.000000	-2.003499	-0.000000	0.000000	0.000000	0.000000	0.000000	0.000000	0.000000	0.000000	0.000000	0.000000
0.476000	-22.271500	574.581543	15.528929	0.927486	0.000000	0.167888	0.000000	-1.942604	-0.000000	0.000000	0.000000	0.000000	0.000000	0.000000	0.000000	0.000000	0.000000	0.000000
0.477000	-22.271500	574.581543	15.689548	0.925639	0.000000	0.167901	0.000000	-2.013504	-0.000000	0.000000	0.000000	0.000000	0.000000	0.000000	0.000000	0.000000	0.000000	0.000000
